<svg version="1.1" id="Layer_1" xmlns="http://www.w3.org/2000/svg" xmlns:xlink="http://www.w3.org/1999/xlink" x="0px" y="0px"
	 width="128px" height="128px" viewBox="0 0 128 128" enable-background="new 0 0 128 128" xml:space="preserve">
<path fill="#60E2E2" d="M119.2,64.91l0.01-0.02c0.319,0.119,0.64,0.229,1,0.289c0.399,0.07,0.761,0.101,1.11,0.101
	c1.55,0,2.97-0.61,4.01-1.71c1.779-1.88,1.9-4.62,1.82-6.08c-0.101-1.8-0.711-3.61-1.871-5.52c-4.049-6.71-14.51-12.56-26.01-14.55
	c-8.439-1.46-13.02-1.57-21.16-0.53c-4.459,0.57-8.689,1.61-12.959,3.18c-0.61,0.23-1.48,0.58-2.07,0.88
	c-9.32,3.9-15.7,7.81-20.69,12.68l-0.85,0.81C38,57.78,28.59,66.66,23.57,77.35c0,0-3.14,5.711-6.67,16.08
	c-5.35,15.68-8.37,17.36-14.38,14.801c-0.5-0.25-1.68-0.53-1.68,0.64c1.71,7.18,17.56,10.59,26.55,10.271
	c13.53-0.49,25.42-10.131,26.23-10.791c1.05-0.85,1.73-0.34,2.38,0.09c2.2,1.48,12.279,8.021,26.02,10.701
	c7.67,1.489,14.371,1.779,20.181,0.85c10.7-1.711,17.96-6.971,21.94-10.521c1.33-1.19,1.409-2-0.041-1.72
	c-1.92,0.37-7.31,2.029-14.649-0.16c-5.55-1.66-7.91-4.061-9.181-4.939c-0.22-0.15-0.949-0.5-1.819,0.109
	c-2.94,2.03-9.39,3.02-13.63,1.801C78.01,102.62,74.18,99.88,72.3,96.96c-1.409-2.17-1.829-4.14-1.92-5.91
	c-0.21-3.88,2.03-6.39,3.97-7.36c3.971-1.989,7.03,1.181,7.26,1.521c0.9,1.34,2.261,3.36,4.69,4.021
	c0.681,0.189,1.36,0.279,2.021,0.279c3,0,6.189-2.029,7.039-7.42l0.021,0.02c0,0,0.42-1.43,1.591-0.83l0.01-0.02
	c0.64,0.4,1.35,0.75,2.199,0.96c0.461,0.12,0.93,0.171,1.4,0.171c3.58,0,5.77-3.211,6.359-6.391c0.211-1.13,0.211-2.2,0.131-3.23
	l0.039,0.021c0,0,0.17-1.07,1.17-0.59v-0.011c0.58,0.34,1.24,0.631,2,0.791c0.41,0.08,0.82,0.129,1.23,0.129
	c3.961,0,6.381-3.77,6.44-7.409c0-0.15-0.021-0.28-0.021-0.421h0.01C117.93,65.279,117.83,64.29,119.2,64.91L119.2,64.91z"/>
<path fill="#006CA2" d="M76.18,63.15c-0.13-2.08-0.529-4.91-1.77-6.66C73.279,54.89,68,43.12,66.5,43.72
	c-8,3.21-15.58,7.021-21.38,12.69c-2.23,2.17-12.8,11.47-18.03,22.6c-0.67,1.42-0.25,2.75,0.68,3.19c1.84,0.87,3.03-0.14,3.98-1.91
	c1.57-2.92,4.86-6.979,7.04-9.38c1.91-2.1,3.67-2.141,4.14-1.92c0.89,0.42,1.48,1.56,0.46,3c-2.84,3.34-5.61,7.24-7.58,11.439
	c-0.66,1.42-0.24,2.75,0.68,3.19c1.84,0.87,3.03-0.149,3.97-1.92c1.58-2.92,4.87-6.979,7.05-9.38c1.9-2.1,3.67-2.141,4.13-1.92
	c0.88,0.42,0.98,1.6,0.39,2.57c-0.58,0.959-2.56,4.27-2.9,4.909c-0.35,0.65-1.14,1.96-1.75,3.431c-0.69,1.649-0.7,3.449,1.09,3.81
	c0.75,0.149,2.09-0.681,2.44-1.101c1.45-1.72,2.81-4.02,4.91-6.459c1.14-1.32,2.28-1.86,3.26-1.09c1.01,0.789,0.51,2.069,0.07,2.909
	c-1.78,3.45-2.83,6.63-2.11,7.7c1.23,1.84,3.66-0.08,4.34-0.87c0.79-0.92,1.73-2.11,2.77-3.16c1.8-1.819,3.571-3.96,7.321-5.35
	c2.069-0.761,4.229-4.8,4.52-6.96C76.471,70.32,76.391,66.58,76.18,63.15z"/>
<path fill="#FFFFFF" d="M98.609,41.26c-7.6-1.32-12.369-1.479-20-0.51C74.4,41.29,70.48,42.26,66.5,43.72
	c-1.141,0.42-3.3,1.3-4,2.39c-1.14,1.8,0.51,2.93,2.09,3.11c1.6,0.19,3.32-0.21,4.91,0.04c2.52,0.39,1.37,2.56-0.05,3.47
	c-1.511,0.96-3.49,1.09-4.87,2.25c-1.59,1.33-1.74,3.42,0.51,3.98c1.1,0.27,2.25,0.14,3.381,0.25c1.939,0.18,2.1,1.69,1.109,3.07
	c-1.15,1.61-3.48,1.89-4.52,3.62c-0.71,1.18-0.41,2.13,0.819,2.709c1.19,0.561,2.69,0.421,3.95,0.711
	c0.62,0.14,1.29,0.359,1.72,0.84c2.761,3.08-6.56,6.27-4.37,9.84c0.36,0.58,0.87,0.939,1.541,1.03c0.67,0.1,1.629,0.11,2.239-0.14
	c2.479-1,5.34-1.98,8.04-1.631c1.779,0.23,3.359,0.98,4.641,2.23c1.149,1.1,2.06,3.54,3.67,3.98c3.66,1,4.35-3.421,4.39-6.031
	c0.03-1.93-1.681-8.379,2.17-7.159c1.45,0.46,2.26,1.979,3.01,3.19c0.81,1.319,1.649,2.569,3.24,2.969
	c1.79,0.451,2.739-1.819,2.989-3.159c0.42-2.25-0.26-4.56-0.629-6.771c-0.23-1.35-0.211-3.029,1.25-3.689
	c1.43-0.65,2.949,0.42,3.91,1.4c0.989,1,1.939,2.629,3.409,2.93c1.979,0.41,2.979-1.9,3.011-3.53c0.02-1.75-0.48-3.44-0.781-5.15
	c-0.1-0.59-0.379-1.52-0.17-2.11c0.301-0.9,1.011-1.25,1.91-1.01c1.121,0.3,2.131,0.95,2.971,1.75c0.869,0.84,1.65,2.01,2.939,2.24
	c2.15,0.39,2.45-2.13,2.36-3.64c-0.08-1.34-0.63-2.6-1.319-3.73C118.48,48.24,108.83,43.03,98.609,41.26L98.609,41.26z"/>
</svg>
